<svg width="1443" height="4334" viewBox="0 0 1443 4334" fill="none" xmlns="http://www.w3.org/2000/svg">
<path d="M242.158 10V169.379V328.758C242.158 328.758 271.657 470.884 169.66 620.027C67.6622 769.171 -69.3343 843.451 67.6622 995.519C204.659 1147.59 451.653 1036.46 470.152 1196.72C488.652 1356.97 935.14 1678.07 888.641 1814.35C842.142 1950.62 1279.13 2039.53 1351.63 2145.97C1424.13 2252.42 1335.13 2728.51 1286.13 2905.14C1237.13 3081.78 1142.13 3457.85 935.14 3433.29C728.145 3408.72 553.65 3781.29 477.152 3708.18C400.654 3635.07 265.157 3787.14 186.159 3928.68C107.161 4070.22 158.16 4334 158.16 4334" stroke="#F7C08F" stroke-width="3"/>
</svg>
